PathFileType	4	(X/Y/Z)	D:\TRACE\spotREDO_2-26-24\spot_Both_Motion_1_6-v60.trc
DataRate	CameraRate	NumFrames	NumMarkers	Units	OrigDataRate	OrigDataStartFrame	OrigNumFrames
100.00	100.00	      27	9	mm	100.00	4376	      7000
Frame#	Time	front left toe			Front right toe			aft left toe			aft right toe			Arm			FL body			FR body			AL Body			AR Body			
		X1	Y1	Z1	X2	Y2	Z2	X3	Y3	Z3	X4	Y4	Z4	X5	Y5	Z5	X6	Y6	Z6	X7	Y7	Z7	X8	Y8	Z8	X9	Y9	Z9	

4376	43.750	-221.21736	70.57043	-425.68118	157.41365	29.63710	-480.79291	-270.38327	16.54741	146.09248	146.24112	18.24966	189.96420	-55.64652	759.92798	-749.48029	-105.43770	603.30939	-508.44046	49.67315	610.68542	-503.64783	-136.54555	545.12616	373.10202	4.21824	552.02893	379.42258	
4377	43.760	-222.08777	60.28729	-424.99829	157.12958	29.64285	-480.67633	-271.19406	16.53523	145.99231	145.22371	18.36567	189.73816	-56.41583	759.83228	-749.51624	-108.02600	603.51215	-509.16492	45.38065	611.14923	-504.61612	-139.54620	545.00378	372.53366	1.48290	552.08716	378.84888	
4378	43.770	-222.79167	49.76966	-424.34531	156.81238	29.64799	-480.56549	-271.73615	16.47734	145.82657	144.78543	18.35522	189.69421	-57.06948	759.67474	-749.65765	-110.96369	603.62073	-509.76807	42.97949	611.27051	-505.31622	-142.52542	545.05865	371.83948	-1.32162	551.84540	378.21356	
4379	43.780	-223.19914	39.50800	-424.12885	156.27357	29.50168	-480.52808	-272.17291	16.32814	145.62358	144.48422	18.85919	189.72421	-57.88801	759.49231	-749.81635	-113.68740	603.64343	-510.76044	40.48389	611.42352	-505.89932	-145.66003	545.01385	371.14105	-4.85266	551.94073	377.35983	
4380	43.790	-223.90707	29.13017	-424.04343	155.45386	29.21695	-480.71985	-273.09009	16.35276	145.55446	143.91499	19.48291	189.97507	-58.75882	759.40601	-749.77124	-116.91173	603.94220	-511.43173	38.50393	611.73425	-506.73508	-149.05711	545.06940	370.11572	-7.86585	551.86011	376.54190	
4381	43.800	-224.92209	26.52497	-426.02277	154.67888	28.91215	-481.00491	-273.93170	16.40561	145.45250	143.09071	19.64509	189.81674	-59.59414	759.33051	-749.74030	-119.98540	604.36877	-512.57465	35.04721	611.10205	-507.25504	-152.40692	545.09631	369.18576	-11.59290	551.75110	375.54318	
4382	43.810	-226.47923	25.92454	-424.46567	153.93373	29.60087	-482.11899	-274.42859	15.36553	145.52138	142.55406	20.39416	188.94991	-60.07403	759.25317	-749.51697	-123.20529	605.41687	-513.25720	31.96852	611.62622	-507.70844	-155.75963	544.96271	368.23392	-15.00785	551.34296	374.78326	
4383	43.820	-227.36172	25.35000	-424.98245	152.09006	30.53704	-482.07635	-276.42719	14.20634	145.50537	140.51616	21.35694	189.07452	-60.77604	759.40558	-749.47443	-126.83710	606.79651	-513.93921	28.85059	612.37286	-509.25146	-158.63408	545.16565	367.51874	-17.62148	550.84900	373.60037	
4384	43.830	-228.35898	25.27575	-424.84308	151.39290	30.62426	-482.58078	-277.13818	14.04460	145.57626	139.76358	22.00838	188.69745	-61.68243	759.90576	-749.28473	-130.03406	608.06110	-514.63159	24.83121	613.11212	-509.92776	-161.68683	545.72101	366.66943	-20.18509	550.38373	372.95572	
4385	43.840	-228.40820	25.04734	-425.21603	151.09361	30.70300	-482.29453	-277.29214	14.48203	145.04721	139.13210	21.96588	188.59656	-62.19881	760.36163	-749.30859	-130.55487	607.98883	-516.04944	21.66712	613.48169	-510.66824	-164.82379	546.32397	365.89764	-23.44050	550.54156	372.01337	
4386	43.850	-228.84300	24.66921	-425.58701	150.29349	30.37934	-482.88287	-277.80862	14.59602	144.91705	138.43243	22.06651	188.43457	-62.51866	760.38812	-749.47760	-136.07863	610.07867	-516.06317	18.92228	613.91327	-511.42441	-167.54642	547.26349	365.26904	-26.70164	551.47614	371.21204	
4387	43.860	-229.41614	23.92197	-425.55753	149.77603	30.09371	-483.09631	-278.26489	14.47168	145.03932	137.90198	22.15753	188.36278	-62.38842	760.39587	-749.40125	-139.01088	610.81439	-516.73480	15.47773	615.01111	-511.83636	-170.07549	548.14496	364.80157	-29.10295	552.01819	370.65073	
4388	43.870	-229.70023	23.72467	-425.71756	149.59273	30.16211	-482.96210	-278.48303	14.31777	144.94151	137.51494	22.65424	188.11952	-62.60751	760.01080	-748.90149	-140.98888	610.89655	-517.41479	12.98524	615.45062	-512.62427	-172.72585	548.74902	363.97858	-31.25260	552.44574	370.24469	
4389	43.880	-229.95837	23.54483	-425.97791	149.42659	30.16027	-483.06989	-278.61993	14.20643	144.75966	137.25877	22.98344	188.17616	-62.97885	759.59552	-749.09943	-143.21413	611.58606	-518.20612	10.91416	615.84998	-513.22357	-175.30571	549.49518	363.17358	-34.21711	553.42352	369.48822	
4390	43.890	-230.30911	22.99577	-426.07623	149.39265	30.08995	-483.10922	-279.12173	14.19870	144.73526	137.04431	23.27029	188.08109	-63.72071	759.24396	-749.12054	-144.70245	611.76556	-518.82446	9.17039	615.51428	-513.42798	-177.65524	550.42194	362.58936	-36.58834	554.29926	368.91287	
4391	43.900	-230.55261	22.50434	-426.33176	149.20555	29.94395	-483.07547	-279.85284	13.94386	144.48993	136.26639	23.19561	187.70509	-65.14948	759.23688	-749.10547	-146.31355	611.79022	-519.66724	8.70027	615.82825	-514.57275	-180.15329	551.02881	361.77829	-39.15654	555.12347	368.38528	
4392	43.910	-230.67009	22.22992	-426.43579	148.86919	29.30993	-483.44968	-280.14389	13.96733	144.26205	136.05252	23.42322	187.68791	-66.34430	758.69989	-749.39618	-147.79001	611.75110	-520.39777	6.48577	616.76227	-514.88849	-182.25464	551.56500	361.11639	-41.38859	555.94885	367.79269	
4393	43.920	-230.83878	21.78744	-426.65573	148.80501	29.52860	-483.28375	-280.43060	14.06712	143.95538	135.99980	23.54217	187.72429	-67.44501	758.47607	-749.39648	-148.77731	611.81055	-520.97748	5.30589	616.94244	-515.44073	-184.16806	552.27466	360.47238	-43.17267	556.79846	367.35342	
4394	43.930	-230.98045	21.57552	-426.85202	148.11180	28.69474	-483.81351	-280.60400	14.13354	143.70517	135.56856	23.82868	187.58255	-68.52254	758.38617	-749.66180	-150.17058	611.89960	-521.94171	5.13458	616.99213	-516.35284	-185.81705	552.84155	359.90390	-45.06193	557.64606	366.55304	
4395	43.940	-231.02808	21.19433	-426.96606	148.09589	28.38224	-484.11005	-280.72870	14.17304	143.56447	135.36748	24.09670	187.22893	-69.75742	758.36786	-749.99023	-151.23895	611.64612	-522.31897	4.13934	617.10559	-517.05371	-187.34772	553.35938	359.10767	-46.17949	558.11841	366.15488	
4396	43.950	-231.25551	20.91255	-426.96936	147.69164	28.09428	-484.38773	-280.77783	14.09917	143.47173	135.24892	24.27865	186.96817	-71.08508	758.36066	-750.36029	-152.67458	611.45148	-522.73853	2.61241	616.48370	-517.56799	-188.58678	553.73370	358.62198	-47.67627	559.05597	365.39044	
4397	43.960	-231.45480	20.48849	-427.02167	147.47391	27.77768	-484.53793	-280.79465	14.04175	143.40904	135.24332	24.39901	186.86856	-71.89166	758.48041	-750.38715	-153.60484	611.01459	-523.47455	1.57704	616.35785	-518.13696	-189.47107	554.14105	358.16916	-48.19574	559.39130	364.96655	
4398	43.970	-231.60970	20.12830	-427.25870	147.28152	27.56638	-484.56729	-280.76932	14.01997	143.35408	135.19621	24.56361	186.75591	-72.11757	758.46661	-750.47394	-154.92845	610.79388	-524.05835	0.39283	616.30072	-518.64471	-190.50006	554.70569	357.64984	-49.53497	560.12854	364.39340	
4399	43.980	-231.77110	19.88126	-427.38965	147.25481	27.47030	-484.73105	-280.74957	14.12558	143.28423	135.14600	24.61909	186.67616	-72.80860	758.53979	-750.88690	-155.74971	610.67053	-524.39758	-0.75151	616.13959	-519.28796	-191.17641	555.00476	357.17734	-50.15672	560.51996	364.05988	
4400	43.990	-231.87418	19.59954	-427.49170	147.04024	27.53328	-484.80881	-280.81952	14.27684	143.20366	135.23499	24.71428	186.37077	-72.97470	758.60303	-751.11737	-156.57001	610.52386	-525.09503	-2.68550	616.95258	-519.42633	-191.61978	555.31757	356.73547	-50.65134	560.97504	363.56561	
4401	44.000	-231.84160	19.20361	-427.50601	146.98779	27.16704	-485.19022	-280.73721	14.41923	142.97466	135.53603	24.82305	186.27293	-73.00986	758.46362	-751.23718	-157.59518	610.44678	-525.65552	-2.52226	616.80194	-520.59167	-192.04808	555.52344	356.34937	-50.96893	561.16779	362.88452	
4402	44.010	-231.88869	18.76879	-427.58783	146.88264	26.80321	-485.51782	-280.83145	14.35240	142.91167	135.74278	24.89607	186.21663	-72.92007	758.37518	-751.46942	-158.03923	610.00195	-525.90149	-2.91938	616.69232	-520.95544	-192.73907	555.80170	355.84387	-51.90524	561.62726	362.45465	
